# xmcd CD database file
#
# Track frame offsets:
#	150
#	10632
#	21885
#	32730
#	44055
#	55387
#	64543
#	75649
#	85188
#	95872
#	107562
#	120747
#
# Disc length: 1744 seconds
#
# Revision: 0
# Processed by: cddbd v1.5.2PL0 Copyright (c) Steve Scherf et al.
# Submitted via: CDex 1.70beta2
#
DISCID=9606ce0c
DTITLE=Locklin, Hank - USA - The Best of Hank Locklin
DYEAR=1900
DGENRE=Country
TTITLE0=Please Help Me I'm Falling
TTITLE1=I was coming home to you
TTITLE2=Danny Boy
TTITLE3=Happy Journey
TTITLE4=Fraulein
TTITLE5=Flying South
TTITLE6=Send me the Pillow You Dream On
TTITLE7=Geisha Girl
TTITLE8=From Here to There to You
TTITLE9=It's a Little More Like Heaven
TTITLE10=The Old Bog Road
TTITLE11=Let me be the One
EXTD=
EXTT0=
EXTT1=
EXTT2=
EXTT3=
EXTT4=
EXTT5=
EXTT6=
EXTT7=
EXTT8=
EXTT9=
EXTT10=
EXTT11=
PLAYORDER=
